<mxfile host="app.diagrams.net" modified="2024-04-12T10:47:54.349Z" agent="Mozilla/5.0 (Macintosh; Intel Mac OS X 10_15_7) AppleWebKit/605.1.15 (KHTML, like Gecko) Version/16.5 Safari/605.1.15" etag="x38sWG4rMCGD0yshRagm" version="24.2.3" type="device">
  <diagram name="第 1 页" id="nJrsoBuCpC7NluPpUsMm">
    <mxGraphModel dx="984" dy="667" grid="1" gridSize="10" guides="1" tooltips="1" connect="1" arrows="1" fold="1" page="1" pageScale="1" pageWidth="827" pageHeight="1169" math="0" shadow="0">
      <root>
        <mxCell id="0" />
        <mxCell id="1" parent="0" />
        <mxCell id="SC28a0FUbtJLOaRqLKhR-2" value="Raw train&amp;nbsp;&lt;div&gt;dataset&lt;/div&gt;" style="rounded=0;whiteSpace=wrap;html=1;fillColor=#f5f5f5;fontColor=#333333;strokeColor=#666666;" parent="1" vertex="1">
          <mxGeometry x="110" y="80" width="100" height="50" as="geometry" />
        </mxCell>
        <mxCell id="SC28a0FUbtJLOaRqLKhR-5" value="Feature table" style="rounded=0;whiteSpace=wrap;html=1;fillColor=#f5f5f5;fontColor=#333333;strokeColor=#666666;" parent="1" vertex="1">
          <mxGeometry x="110" y="259.5" width="100" height="50" as="geometry" />
        </mxCell>
        <mxCell id="SC28a0FUbtJLOaRqLKhR-6" value="1. TSFRESH" style="ellipse;whiteSpace=wrap;html=1;fillColor=#f8cecc;strokeColor=#b85450;" parent="1" vertex="1">
          <mxGeometry x="181.25" y="167.34" width="92.5" height="40" as="geometry" />
        </mxCell>
        <mxCell id="SC28a0FUbtJLOaRqLKhR-8" value="Feature table&lt;div&gt;with top-k features&lt;/div&gt;" style="rounded=0;whiteSpace=wrap;html=1;fillColor=#f5f5f5;fontColor=#333333;strokeColor=#666666;" parent="1" vertex="1">
          <mxGeometry x="110" y="450" width="100" height="50" as="geometry" />
        </mxCell>
        <mxCell id="SC28a0FUbtJLOaRqLKhR-11" value="2. Rank feature importance" style="ellipse;whiteSpace=wrap;html=1;fillColor=#f8cecc;strokeColor=#b85450;" parent="1" vertex="1">
          <mxGeometry x="182.5" y="340" width="90" height="60" as="geometry" />
        </mxCell>
        <mxCell id="SC28a0FUbtJLOaRqLKhR-12" value="" style="html=1;shadow=0;dashed=0;align=center;verticalAlign=middle;shape=mxgraph.arrows2.arrow;dy=0.48;dx=26;notch=0;fillColor=#f8cecc;strokeColor=#b85450;rotation=90;" parent="1" vertex="1">
          <mxGeometry x="103.11999999999999" y="190.78" width="113.75" height="16.56" as="geometry" />
        </mxCell>
        <mxCell id="SC28a0FUbtJLOaRqLKhR-16" value="3. Classify by&amp;nbsp;&lt;div&gt;decision tree&lt;/div&gt;" style="ellipse;whiteSpace=wrap;html=1;fillColor=#f8cecc;strokeColor=#b85450;" parent="1" vertex="1">
          <mxGeometry x="372.5" y="100" width="130" height="40" as="geometry" />
        </mxCell>
        <mxCell id="SC28a0FUbtJLOaRqLKhR-17" value="" style="group;fillColor=#dae8fc;strokeColor=#6c8ebf;" parent="1" vertex="1" connectable="0">
          <mxGeometry x="300" y="169" width="100" height="160" as="geometry" />
        </mxCell>
        <mxCell id="SC28a0FUbtJLOaRqLKhR-18" value="Decision Tree" style="shape=umlFrame;whiteSpace=wrap;html=1;pointerEvents=0;width=80;height=30;" parent="SC28a0FUbtJLOaRqLKhR-17" vertex="1">
          <mxGeometry width="100.00000000000001" height="160" as="geometry" />
        </mxCell>
        <mxCell id="SC28a0FUbtJLOaRqLKhR-19" value="" style="group" parent="SC28a0FUbtJLOaRqLKhR-17" vertex="1" connectable="0">
          <mxGeometry x="15" y="40" width="70" height="108" as="geometry" />
        </mxCell>
        <mxCell id="SC28a0FUbtJLOaRqLKhR-20" value="" style="ellipse;whiteSpace=wrap;html=1;aspect=fixed;" parent="SC28a0FUbtJLOaRqLKhR-19" vertex="1">
          <mxGeometry x="30" width="8.181818181818182" height="8.181818181818182" as="geometry" />
        </mxCell>
        <mxCell id="SC28a0FUbtJLOaRqLKhR-21" value="" style="ellipse;whiteSpace=wrap;html=1;aspect=fixed;" parent="SC28a0FUbtJLOaRqLKhR-19" vertex="1">
          <mxGeometry x="10" y="24" width="8.181818181818182" height="8.181818181818182" as="geometry" />
        </mxCell>
        <mxCell id="SC28a0FUbtJLOaRqLKhR-22" value="" style="ellipse;whiteSpace=wrap;html=1;aspect=fixed;fillColor=#f0a30a;fontColor=#000000;strokeColor=#BD7000;" parent="SC28a0FUbtJLOaRqLKhR-19" vertex="1">
          <mxGeometry x="50.00000000000001" y="24" width="8.181818181818182" height="8.181818181818182" as="geometry" />
        </mxCell>
        <mxCell id="SC28a0FUbtJLOaRqLKhR-23" value="" style="ellipse;whiteSpace=wrap;html=1;aspect=fixed;fillColor=#f0a30a;fontColor=#000000;strokeColor=#BD7000;" parent="SC28a0FUbtJLOaRqLKhR-19" vertex="1">
          <mxGeometry x="20" y="48" width="8.181818181818182" height="8.181818181818182" as="geometry" />
        </mxCell>
        <mxCell id="SC28a0FUbtJLOaRqLKhR-24" value="" style="ellipse;whiteSpace=wrap;html=1;aspect=fixed;fillColor=#60a917;fontColor=#ffffff;strokeColor=#2D7600;" parent="SC28a0FUbtJLOaRqLKhR-19" vertex="1">
          <mxGeometry y="48" width="8.181818181818182" height="8.181818181818182" as="geometry" />
        </mxCell>
        <mxCell id="SC28a0FUbtJLOaRqLKhR-25" value="" style="ellipse;whiteSpace=wrap;html=1;aspect=fixed;fillColor=#6a00ff;fontColor=#ffffff;strokeColor=#3700CC;" parent="SC28a0FUbtJLOaRqLKhR-19" vertex="1">
          <mxGeometry x="40" y="48" width="8.181818181818182" height="8.181818181818182" as="geometry" />
        </mxCell>
        <mxCell id="SC28a0FUbtJLOaRqLKhR-26" value="" style="ellipse;whiteSpace=wrap;html=1;aspect=fixed;fillColor=#0050ef;fontColor=#ffffff;strokeColor=#001DBC;" parent="SC28a0FUbtJLOaRqLKhR-19" vertex="1">
          <mxGeometry x="30" y="72" width="8.181818181818182" height="8.181818181818182" as="geometry" />
        </mxCell>
        <mxCell id="SC28a0FUbtJLOaRqLKhR-27" value="" style="ellipse;whiteSpace=wrap;html=1;aspect=fixed;fillColor=#6a00ff;fontColor=#ffffff;strokeColor=#3700CC;" parent="SC28a0FUbtJLOaRqLKhR-19" vertex="1">
          <mxGeometry x="50.00000000000001" y="72" width="8.181818181818182" height="8.181818181818182" as="geometry" />
        </mxCell>
        <mxCell id="SC28a0FUbtJLOaRqLKhR-28" value="" style="endArrow=classic;html=1;rounded=0;exitX=0;exitY=1;exitDx=0;exitDy=0;entryX=1;entryY=0;entryDx=0;entryDy=0;" parent="SC28a0FUbtJLOaRqLKhR-19" source="SC28a0FUbtJLOaRqLKhR-20" target="SC28a0FUbtJLOaRqLKhR-21" edge="1">
          <mxGeometry width="50" height="50" relative="1" as="geometry">
            <mxPoint x="56.666666666666664" y="40" as="sourcePoint" />
            <mxPoint x="110.00000000000001" y="160" as="targetPoint" />
          </mxGeometry>
        </mxCell>
        <mxCell id="SC28a0FUbtJLOaRqLKhR-29" value="" style="endArrow=classic;html=1;rounded=0;entryX=0;entryY=0;entryDx=0;entryDy=0;" parent="SC28a0FUbtJLOaRqLKhR-19" target="SC28a0FUbtJLOaRqLKhR-22" edge="1">
          <mxGeometry width="50" height="50" relative="1" as="geometry">
            <mxPoint x="38.666666666666664" y="10.4" as="sourcePoint" />
            <mxPoint x="25.333333333333336" y="33.6" as="targetPoint" />
          </mxGeometry>
        </mxCell>
        <mxCell id="SC28a0FUbtJLOaRqLKhR-30" value="" style="endArrow=classic;html=1;rounded=0;entryX=0.5;entryY=0;entryDx=0;entryDy=0;exitX=0;exitY=1;exitDx=0;exitDy=0;" parent="SC28a0FUbtJLOaRqLKhR-19" source="SC28a0FUbtJLOaRqLKhR-22" target="SC28a0FUbtJLOaRqLKhR-25" edge="1">
          <mxGeometry width="50" height="50" relative="1" as="geometry">
            <mxPoint x="46" y="34.4" as="sourcePoint" />
            <mxPoint x="58.666666666666664" y="49.6" as="targetPoint" />
          </mxGeometry>
        </mxCell>
        <mxCell id="SC28a0FUbtJLOaRqLKhR-31" value="" style="endArrow=classic;html=1;rounded=0;entryX=0.5;entryY=0;entryDx=0;entryDy=0;exitX=1;exitY=1;exitDx=0;exitDy=0;" parent="SC28a0FUbtJLOaRqLKhR-19" source="SC28a0FUbtJLOaRqLKhR-21" target="SC28a0FUbtJLOaRqLKhR-23" edge="1">
          <mxGeometry width="50" height="50" relative="1" as="geometry">
            <mxPoint x="52" y="26.4" as="sourcePoint" />
            <mxPoint x="64.66666666666667" y="41.6" as="targetPoint" />
          </mxGeometry>
        </mxCell>
        <mxCell id="SC28a0FUbtJLOaRqLKhR-32" value="" style="endArrow=classic;html=1;rounded=0;entryX=0.5;entryY=0;entryDx=0;entryDy=0;exitX=0;exitY=1;exitDx=0;exitDy=0;" parent="SC28a0FUbtJLOaRqLKhR-19" source="SC28a0FUbtJLOaRqLKhR-21" target="SC28a0FUbtJLOaRqLKhR-24" edge="1">
          <mxGeometry width="50" height="50" relative="1" as="geometry">
            <mxPoint x="25.333333333333336" y="42.4" as="sourcePoint" />
            <mxPoint x="32" y="56" as="targetPoint" />
          </mxGeometry>
        </mxCell>
        <mxCell id="SC28a0FUbtJLOaRqLKhR-33" value="" style="endArrow=classic;html=1;rounded=0;entryX=0.5;entryY=0;entryDx=0;entryDy=0;exitX=0;exitY=1;exitDx=0;exitDy=0;" parent="SC28a0FUbtJLOaRqLKhR-19" source="SC28a0FUbtJLOaRqLKhR-25" target="SC28a0FUbtJLOaRqLKhR-26" edge="1">
          <mxGeometry width="50" height="50" relative="1" as="geometry">
            <mxPoint x="25.333333333333336" y="42.4" as="sourcePoint" />
            <mxPoint x="32" y="56" as="targetPoint" />
          </mxGeometry>
        </mxCell>
        <mxCell id="SC28a0FUbtJLOaRqLKhR-34" value="" style="endArrow=classic;html=1;rounded=0;entryX=0.5;entryY=0;entryDx=0;entryDy=0;exitX=1;exitY=1;exitDx=0;exitDy=0;" parent="SC28a0FUbtJLOaRqLKhR-19" source="SC28a0FUbtJLOaRqLKhR-25" target="SC28a0FUbtJLOaRqLKhR-27" edge="1">
          <mxGeometry width="50" height="50" relative="1" as="geometry">
            <mxPoint x="32" y="50.4" as="sourcePoint" />
            <mxPoint x="38.666666666666664" y="64" as="targetPoint" />
          </mxGeometry>
        </mxCell>
        <mxCell id="SC28a0FUbtJLOaRqLKhR-35" value="" style="ellipse;whiteSpace=wrap;html=1;aspect=fixed;fillColor=#f0a30a;fontColor=#000000;strokeColor=#BD7000;" parent="SC28a0FUbtJLOaRqLKhR-19" vertex="1">
          <mxGeometry x="60" y="48" width="8.181818181818182" height="8.181818181818182" as="geometry" />
        </mxCell>
        <mxCell id="SC28a0FUbtJLOaRqLKhR-36" value="" style="endArrow=classic;html=1;rounded=0;entryX=0.5;entryY=0;entryDx=0;entryDy=0;exitX=1;exitY=1;exitDx=0;exitDy=0;" parent="SC28a0FUbtJLOaRqLKhR-19" source="SC28a0FUbtJLOaRqLKhR-22" target="SC28a0FUbtJLOaRqLKhR-35" edge="1">
          <mxGeometry width="50" height="50" relative="1" as="geometry">
            <mxPoint x="57.99999999999999" y="42.4" as="sourcePoint" />
            <mxPoint x="52" y="56" as="targetPoint" />
          </mxGeometry>
        </mxCell>
        <mxCell id="SC28a0FUbtJLOaRqLKhR-37" value="" style="ellipse;whiteSpace=wrap;html=1;aspect=fixed;fillColor=#6a00ff;strokeColor=#3700CC;fontColor=#ffffff;" parent="SC28a0FUbtJLOaRqLKhR-19" vertex="1">
          <mxGeometry x="40" y="96" width="8.181818181818182" height="8.181818181818182" as="geometry" />
        </mxCell>
        <mxCell id="SC28a0FUbtJLOaRqLKhR-38" value="" style="ellipse;whiteSpace=wrap;html=1;aspect=fixed;fillColor=#6a00ff;fontColor=#ffffff;strokeColor=#3700CC;" parent="SC28a0FUbtJLOaRqLKhR-19" vertex="1">
          <mxGeometry x="60" y="95.2" width="8.181818181818182" height="8.181818181818182" as="geometry" />
        </mxCell>
        <mxCell id="SC28a0FUbtJLOaRqLKhR-39" value="" style="endArrow=classic;html=1;rounded=0;entryX=0.5;entryY=0;entryDx=0;entryDy=0;exitX=0;exitY=1;exitDx=0;exitDy=0;" parent="SC28a0FUbtJLOaRqLKhR-19" source="SC28a0FUbtJLOaRqLKhR-27" target="SC28a0FUbtJLOaRqLKhR-37" edge="1">
          <mxGeometry width="50" height="50" relative="1" as="geometry">
            <mxPoint x="47.99999999999999" y="70.4" as="sourcePoint" />
            <mxPoint x="42" y="84" as="targetPoint" />
          </mxGeometry>
        </mxCell>
        <mxCell id="SC28a0FUbtJLOaRqLKhR-40" value="" style="endArrow=classic;html=1;rounded=0;entryX=0.5;entryY=0;entryDx=0;entryDy=0;exitX=1;exitY=1;exitDx=0;exitDy=0;" parent="SC28a0FUbtJLOaRqLKhR-19" source="SC28a0FUbtJLOaRqLKhR-27" target="SC28a0FUbtJLOaRqLKhR-38" edge="1">
          <mxGeometry width="50" height="50" relative="1" as="geometry">
            <mxPoint x="57.99999999999999" y="90.4" as="sourcePoint" />
            <mxPoint x="52" y="104" as="targetPoint" />
          </mxGeometry>
        </mxCell>
        <mxCell id="SC28a0FUbtJLOaRqLKhR-41" value="" style="group;fillColor=#fff2cc;strokeColor=#d6b656;" parent="1" vertex="1" connectable="0">
          <mxGeometry x="300" y="390" width="101" height="160" as="geometry" />
        </mxCell>
        <mxCell id="SC28a0FUbtJLOaRqLKhR-43" value="If feature_1 &amp;gt; 6.0 &amp;amp; feature_2 &amp;lt; 0.233, then: Class 2" style="rounded=1;whiteSpace=wrap;html=1;" parent="SC28a0FUbtJLOaRqLKhR-41" vertex="1">
          <mxGeometry x="7.21" y="50" width="86.57" height="68" as="geometry" />
        </mxCell>
        <mxCell id="SC28a0FUbtJLOaRqLKhR-44" value="Classification Rules" style="shape=umlFrame;whiteSpace=wrap;html=1;pointerEvents=0;width=110;height=30;" parent="SC28a0FUbtJLOaRqLKhR-41" vertex="1">
          <mxGeometry width="101" height="160" as="geometry" />
        </mxCell>
        <mxCell id="SC28a0FUbtJLOaRqLKhR-45" value="......" style="rounded=1;whiteSpace=wrap;html=1;" parent="SC28a0FUbtJLOaRqLKhR-41" vertex="1">
          <mxGeometry x="6.733333333333333" y="128" width="86.57046666666666" height="22" as="geometry" />
        </mxCell>
        <mxCell id="SC28a0FUbtJLOaRqLKhR-48" value="4. Transform&amp;nbsp;&lt;div&gt;rules to text&lt;/div&gt;" style="ellipse;whiteSpace=wrap;html=1;fillColor=#f8cecc;strokeColor=#b85450;" parent="1" vertex="1">
          <mxGeometry x="390" y="342.66" width="100" height="40" as="geometry" />
        </mxCell>
        <mxCell id="SC28a0FUbtJLOaRqLKhR-50" value="" style="html=1;shadow=0;dashed=0;align=center;verticalAlign=middle;shape=mxgraph.arrows2.arrow;dy=0.48;dx=26;notch=0;fillColor=#f8cecc;strokeColor=#b85450;rotation=90;" parent="1" vertex="1">
          <mxGeometry x="97.5" y="370.94" width="125" height="16.56" as="geometry" />
        </mxCell>
        <mxCell id="SC28a0FUbtJLOaRqLKhR-52" value="" style="html=1;shadow=0;dashed=0;align=center;verticalAlign=middle;shape=mxgraph.arrows2.arrow;dy=0.48;dx=26;notch=0;fillColor=#f8cecc;strokeColor=#b85450;rotation=90;" parent="1" vertex="1">
          <mxGeometry x="327.5" y="354.38000000000005" width="45" height="16.56" as="geometry" />
        </mxCell>
        <mxCell id="SC28a0FUbtJLOaRqLKhR-54" value="" style="html=1;shadow=0;dashed=0;align=center;verticalAlign=middle;shape=mxgraph.arrows2.arrow;dy=0.48;dx=26;notch=0;fillColor=#f8cecc;strokeColor=#b85450;rotation=90;" parent="1" vertex="1">
          <mxGeometry x="313.5" y="117.94" width="74" height="16.56" as="geometry" />
        </mxCell>
        <mxCell id="SC28a0FUbtJLOaRqLKhR-55" value="" style="html=1;shadow=0;dashed=0;align=center;verticalAlign=middle;shape=mxgraph.arrows2.arrow;dy=0.48;dx=26;notch=0;fillColor=#f8cecc;strokeColor=#b85450;rotation=90;" parent="1" vertex="1">
          <mxGeometry x="137.25" y="519.22" width="44" height="16.56" as="geometry" />
        </mxCell>
        <mxCell id="SC28a0FUbtJLOaRqLKhR-56" value="" style="endArrow=none;dashed=1;html=1;dashPattern=1 3;strokeWidth=5;rounded=0;" parent="1" edge="1">
          <mxGeometry width="50" height="50" relative="1" as="geometry">
            <mxPoint x="280" y="560" as="sourcePoint" />
            <mxPoint x="280" y="60" as="targetPoint" />
          </mxGeometry>
        </mxCell>
      </root>
    </mxGraphModel>
  </diagram>
</mxfile>
